<?xml version="1.0" encoding="UTF-8"?>
<svg id="Layer_1" data-name="Layer 1" xmlns="http://www.w3.org/2000/svg" viewBox="0 0 113 187">
  <path d="m.49,109.07C-2.19,62.79,16.73,28.21,39,11.4c26.29-19.73,57.6-15.1,64.96,23.62,6.03,31.66-10.38,73.31-58.43,75.74l-.5-26.95c33.65-1.46,40.17-23.81,35.11-42.71-3.2-11.97-15.69-17.79-33.1-4.64-17.08,12.66-25.13,34.11-22.8,71.12,1.69,26.94,12.71,49.34,32.51,50.43,13.83.76,26.23-10.88,32.43-38.89l23.83,7.45c-8.37,36.05-28.63,60.16-54.41,60.16C23.26,186.76,2.83,150.22.49,109.07Z"/>
</svg>