<?xml version="1.0" encoding="UTF-8"?>
<svg id="Layer_1" data-name="Layer 1" xmlns="http://www.w3.org/2000/svg" viewBox="0 0 90 188">
  <path d="m45,4c11.39,0,22.03,2.28,29.97,6.43,7.01,3.66,11.03,8.43,11.03,13.07s-4.02,9.41-11.03,13.07c-7.94,4.15-18.58,6.43-29.97,6.43s-22.03-2.28-29.97-6.43c-7.01-3.66-11.03-8.43-11.03-13.07s4.02-9.41,11.03-13.07c7.94-4.15,18.58-6.43,29.97-6.43m0-4C20.15,0,0,10.52,0,23.5s20.15,23.5,45,23.5,45-10.52,45-23.5S69.85,0,45,0h0Z"/>
  <path d="m45,27.5c11.39,0,22.03,2.28,29.97,6.43,7.01,3.66,11.03,8.43,11.03,13.07s-4.02,9.41-11.03,13.07c-7.94,4.15-18.58,6.43-29.97,6.43s-22.03-2.28-29.97-6.43c-7.01-3.66-11.03-8.43-11.03-13.07s4.02-9.41,11.03-13.07c7.94-4.15,18.58-6.43,29.97-6.43m0-4C20.15,23.5,0,34.02,0,47s20.15,23.5,45,23.5,45-10.52,45-23.5-20.15-23.5-45-23.5h0Z"/>
  <path d="m45,51c11.39,0,22.03,2.28,29.97,6.43,7.01,3.66,11.03,8.43,11.03,13.07s-4.02,9.41-11.03,13.07c-7.94,4.15-18.58,6.43-29.97,6.43s-22.03-2.28-29.97-6.43c-7.01-3.66-11.03-8.43-11.03-13.07s4.02-9.41,11.03-13.07c7.94-4.15,18.58-6.43,29.97-6.43m0-4C20.15,47,0,57.52,0,70.5s20.15,23.5,45,23.5,45-10.52,45-23.5-20.15-23.5-45-23.5h0Z"/>
  <path d="m45,74.5c11.39,0,22.03,2.28,29.97,6.43,7.01,3.66,11.03,8.43,11.03,13.07s-4.02,9.41-11.03,13.07c-7.94,4.15-18.58,6.43-29.97,6.43s-22.03-2.28-29.97-6.43c-7.01-3.66-11.03-8.43-11.03-13.07s4.02-9.41,11.03-13.07c7.94-4.15,18.58-6.43,29.97-6.43m0-4c-24.85,0-45,10.52-45,23.5s20.15,23.5,45,23.5,45-10.52,45-23.5-20.15-23.5-45-23.5h0Z"/>
  <path d="m45,98c11.39,0,22.03,2.28,29.97,6.43,7.01,3.66,11.03,8.43,11.03,13.07s-4.02,9.41-11.03,13.07c-7.94,4.15-18.58,6.43-29.97,6.43s-22.03-2.28-29.97-6.43c-7.01-3.66-11.03-8.43-11.03-13.07s4.02-9.41,11.03-13.07c7.94-4.15,18.58-6.43,29.97-6.43m0-4c-24.85,0-45,10.52-45,23.5s20.15,23.5,45,23.5,45-10.52,45-23.5-20.15-23.5-45-23.5h0Z"/>
  <path d="m45,121.5c11.39,0,22.03,2.28,29.97,6.43,7.01,3.66,11.03,8.43,11.03,13.07s-4.02,9.41-11.03,13.07c-7.94,4.15-18.58,6.43-29.97,6.43s-22.03-2.28-29.97-6.43c-7.01-3.66-11.03-8.43-11.03-13.07s4.02-9.41,11.03-13.07c7.94-4.15,18.58-6.43,29.97-6.43m0-4c-24.85,0-45,10.52-45,23.5s20.15,23.5,45,23.5,45-10.52,45-23.5-20.15-23.5-45-23.5h0Z"/>
  <path d="m45,145c11.39,0,22.03,2.28,29.97,6.43,7.01,3.66,11.03,8.43,11.03,13.07s-4.02,9.41-11.03,13.07c-7.94,4.15-18.58,6.43-29.97,6.43s-22.03-2.28-29.97-6.43c-7.01-3.66-11.03-8.43-11.03-13.07s4.02-9.41,11.03-13.07c7.94-4.15,18.58-6.43,29.97-6.43m0-4c-24.85,0-45,10.52-45,23.5s20.15,23.5,45,23.5,45-10.52,45-23.5-20.15-23.5-45-23.5h0Z"/>
</svg>