<svg viewBox="0 0 150 188" fill="none" xmlns="http://www.w3.org/2000/svg">
<path d="M50.9386 186.196C88.5146 193.272 125.603 178.632 149.271 148.62L131.459 134.712C110.475 161.552 78.0226 168.384 55.3306 163.748C23.3666 157.16 14.5826 123.488 34.5906 98.6C45.8146 108.116 61.4306 113.24 76.3147 113.484C100.715 113.972 120.479 101.772 119.747 79.812C119.015 57.364 94.6146 48.092 72.4106 52.484C59.7226 54.924 47.5226 60.048 37.2746 67.124C32.8826 57.12 37.2746 41.992 49.7186 33.452C66.0666 22.228 92.4186 20.52 118.283 30.036L126.091 9.052C97.0546 -1.44001 63.3826 -3.88001 36.7866 15.152C13.8506 31.5 7.26264 59.804 19.2186 81.764C-14.6974 120.072 -1.76539 176.192 50.9386 186.196ZM51.9146 83.96C56.5506 79.324 66.7987 75.42 76.3147 73.956C87.2946 72.248 97.7866 73.712 97.5426 80.788C97.5426 89.084 84.8547 91.036 76.3147 91.036C67.7747 91.036 59.4786 88.596 51.9146 83.96Z" fill="currentColor"/>
<path d="M50.9386 186.196C88.5146 193.272 125.603 178.632 149.271 148.62L131.459 134.712C110.475 161.552 78.0226 168.384 55.3306 163.748C23.3666 157.16 14.5826 123.488 34.5906 98.6C45.8146 108.116 61.4306 113.24 76.3147 113.484C100.715 113.972 120.479 101.772 119.747 79.812C119.015 57.364 94.6146 48.092 72.4106 52.484C59.7226 54.924 47.5226 60.048 37.2746 67.124C32.8826 57.12 37.2746 41.992 49.7186 33.452C66.0666 22.228 92.4186 20.52 118.283 30.036L126.091 9.052C97.0546 -1.44001 63.3826 -3.88001 36.7866 15.152C13.8506 31.5 7.26264 59.804 19.2186 81.764C-14.6974 120.072 -1.76539 176.192 50.9386 186.196ZM51.9146 83.96C56.5506 79.324 66.7987 75.42 76.3147 73.956C87.2946 72.248 97.7866 73.712 97.5426 80.788C97.5426 89.084 84.8547 91.036 76.3147 91.036C67.7747 91.036 59.4786 88.596 51.9146 83.96Z" fill="currentColor"/>
</svg>
