<svg viewBox="0 0 109 179" fill="none" xmlns="http://www.w3.org/2000/svg">
<path d="M65.636 124.588V179H101.26V122.392C101.26 107.508 93.452 97.5039 78.812 96.7719V95.552C98.82 89.452 108.824 72.128 108.824 50.656C108.824 18.2039 92.232 0.147949 59.048 0.147949H0V179H35.624V102.628H45.384C58.316 102.628 65.636 108.484 65.636 124.588ZM35.624 72.8599V29.6719H54.656C66.124 29.6719 74.42 35.772 74.42 50.656C74.42 65.5399 66.124 72.8599 54.656 72.8599H35.624Z" fill="currentColor"/>
<path d="M65.636 124.588V179H101.26V122.392C101.26 107.508 93.452 97.5039 78.812 96.7719V95.552C98.82 89.452 108.824 72.128 108.824 50.656C108.824 18.2039 92.232 0.147949 59.048 0.147949H0V179H35.624V102.628H45.384C58.316 102.628 65.636 108.484 65.636 124.588ZM35.624 72.8599V29.6719H54.656C66.124 29.6719 74.42 35.772 74.42 50.656C74.42 65.5399 66.124 72.8599 54.656 72.8599H35.624Z" fill="currentColor"/>
</svg>
