<svg viewBox="0 0 117 179" fill="none" xmlns="http://www.w3.org/2000/svg">
<path d="M0.71875 179H53.9107C86.6067 179 116.619 161.188 116.619 96.7719V81.8879C116.619 16.9839 93.1947 0.147949 53.9107 0.147949H0.71875V179ZM36.3427 149.476V29.4279H48.2987C69.7707 29.4279 80.9948 39.4319 80.9948 87.012V91.8919C80.9948 142.156 69.7707 149.476 48.2987 149.476H36.3427Z" fill="currentColor"/>
<path d="M0.71875 179H53.9107C86.6067 179 116.619 161.188 116.619 96.7719V81.8879C116.619 16.9839 93.1947 0.147949 53.9107 0.147949H0.71875V179ZM36.3427 149.476V29.4279H48.2987C69.7707 29.4279 80.9948 39.4319 80.9948 87.012V91.8919C80.9948 142.156 69.7707 149.476 48.2987 149.476H36.3427Z" fill="currentColor"/>
</svg>
