<?xml version="1.0" encoding="UTF-8"?>
<svg id="Layer_1" data-name="Layer 1" xmlns="http://www.w3.org/2000/svg" viewBox="0 0 117 179">
  <path d="m117,60.18v-30.93c0-16.15-13.1-29.25-29.25-29.25h-29.25v29.32C58.5,13.17,45.4.07,29.25.07H0v60.18c0,16.15,13.1,29.25,29.25,29.25-16.15,0-29.25,13.1-29.25,29.25v60.32h29.25c16.15,0,29.25-13.1,29.25-29.25v29.18h29.25c16.15,0,29.25-13.1,29.25-29.25v-31.07c0-16.15-13.1-29.25-29.25-29.25s-29.25,13.1-29.25,29.25v-58.5c0,16.15,13.1,29.25,29.25,29.25s29.25-13.1,29.25-29.25Z"/>
</svg>