<?xml version="1.0" encoding="utf-8"?>
<!-- Generator: Adobe Illustrator 27.3.1, SVG Export Plug-In . SVG Version: 6.00 Build 0)  -->
<svg version="1.1" id="Layer_2_00000124150503498281589280000017430808189620499371_"
	 xmlns="http://www.w3.org/2000/svg" xmlns:xlink="http://www.w3.org/1999/xlink" x="0px" y="0px" viewBox="0 0 115 187"
	 style="enable-background:new 0 0 115 187;" xml:space="preserve">
<path d="M75,4.8v4c10.3,0,19.3,3.5,25.9,10.1c16,16,12.6,45.4-7.5,65.5c-11.2,11.2-25.6,17.6-39.6,17.6c-10.4,0-19.3-3.5-25.9-10.1
	c-16-16-12.6-45.4,7.5-65.5C46.6,15.2,61,8.8,75,8.8V4.8 M75,4.8c-14.4,0-30,6.4-42.4,18.8C10.9,45.2,7.5,77.1,25.1,94.7
	c7.6,7.6,17.8,11.3,28.8,11.3c14.4,0,30-6.4,42.4-18.8c21.7-21.7,25.1-53.6,7.5-71.1C96.2,8.4,85.9,4.8,75,4.8C75,4.8,75,4.8,75,4.8
	z"/>
<path d="M64.9,88.4c10.3,0,19.3,3.5,25.9,10.1c7.6,7.6,11.1,18.6,9.8,30.8c-1.3,12.5-7.5,24.9-17.3,34.7
	c-11.2,11.2-25.6,17.6-39.6,17.6c-10.4,0-19.3-3.5-25.9-10.1c-7.6-7.6-11.1-18.6-9.8-30.8c1.3-12.5,7.5-24.9,17.3-34.7
	C36.6,94.8,51,88.4,64.9,88.4 M64.9,84.4c-14.4,0-30,6.4-42.4,18.8c-21.7,21.7-25.1,53.6-7.5,71.1c7.6,7.6,17.8,11.3,28.8,11.3
	c14.4,0,30-6.4,42.4-18.8c21.7-21.7,25.1-53.6,7.5-71.1C86.1,88.1,75.9,84.4,64.9,84.4L64.9,84.4L64.9,84.4z"/>
<path d="M75,16.8v4c10.3,0,19.3,3.5,25.9,10.1c16,16,12.6,45.4-7.5,65.5C82.2,107.6,67.8,114,53.9,114c-10.4,0-19.3-3.5-25.9-10.1
	c-16-16-12.6-45.4,7.5-65.5C46.6,27.2,61,20.8,75,20.8V16.8 M75,16.8c-14.4,0-30,6.4-42.4,18.8c-21.7,21.7-25.1,53.6-7.5,71.1
	c7.6,7.6,17.8,11.3,28.8,11.3c14.4,0,30-6.4,42.4-18.8c21.7-21.7,25.1-53.6,7.5-71.1C96.2,20.5,85.9,16.8,75,16.8
	C75,16.8,75,16.8,75,16.8z"/>
<path d="M64.9,77.2c10.3,0,19.3,3.5,25.9,10.1c7.6,7.6,11.1,18.6,9.8,30.8c-1.3,12.5-7.5,24.9-17.3,34.7
	c-11.2,11.2-25.6,17.6-39.6,17.6c-10.4,0-19.3-3.5-25.9-10.1c-7.6-7.6-11.1-18.6-9.8-30.8c1.3-12.5,7.5-24.9,17.3-34.7
	C36.6,83.6,51,77.2,64.9,77.2 M64.9,73.2c-14.4,0-30,6.4-42.4,18.8c-21.7,21.7-25.1,53.6-7.5,71.1c7.6,7.6,17.8,11.3,28.8,11.3
	c14.4,0,30-6.4,42.4-18.8c21.7-21.7,25.1-53.6,7.5-71.1C86.1,76.9,75.9,73.2,64.9,73.2L64.9,73.2L64.9,73.2z"/>
</svg>
