<svg viewBox="0 0 115 187" fill="none" xmlns="http://www.w3.org/2000/svg">
<path d="M59.5101 186.416C90.0101 186.416 114.898 168.848 114.898 131.76C114.898 96.6239 83.1781 85.1559 70.0021 79.0559L59.998 74.4199C49.994 69.7839 36.8181 64.4159 36.8181 49.5319C36.8181 38.5519 43.162 30.7439 54.386 30.7439C66.5861 30.7439 76.1021 38.5519 76.1021 60.0239V65.8799H110.75V57.5839C110.75 14.8839 88.7901 0.243896 56.3381 0.243896C24.8621 0.243896 0.218018 16.8359 0.218018 50.7519C0.218018 85.1559 26.082 96.3799 45.358 105.408L56.3381 110.532C67.8061 115.9 80.2501 122.244 80.2501 136.152C80.2501 145.668 74.1501 156.16 59.5101 155.916C45.3581 155.672 39.746 143.472 39.746 126.636V121.024H5.09802V128.588C5.09802 169.58 27.0581 186.416 59.5101 186.416Z" fill="currentColor"/>
<path d="M59.5101 186.416C90.0101 186.416 114.898 168.848 114.898 131.76C114.898 96.6239 83.1781 85.1559 70.0021 79.0559L59.998 74.4199C49.994 69.7839 36.8181 64.4159 36.8181 49.5319C36.8181 38.5519 43.162 30.7439 54.386 30.7439C66.5861 30.7439 76.1021 38.5519 76.1021 60.0239V65.8799H110.75V57.5839C110.75 14.8839 88.7901 0.243896 56.3381 0.243896C24.8621 0.243896 0.218018 16.8359 0.218018 50.7519C0.218018 85.1559 26.082 96.3799 45.358 105.408L56.3381 110.532C67.8061 115.9 80.2501 122.244 80.2501 136.152C80.2501 145.668 74.1501 156.16 59.5101 155.916C45.3581 155.672 39.746 143.472 39.746 126.636V121.024H5.09802V128.588C5.09802 169.58 27.0581 186.416 59.5101 186.416Z" fill="currentColor"/>
</svg>
