<?xml version="1.0" encoding="UTF-8"?>
<svg id="Layer_1" data-name="Layer 1" xmlns="http://www.w3.org/2000/svg" viewBox="0 0 113 187">
  <path d="m56.5,77.66c28.95,0,52.5,23.55,52.5,52.5s-23.55,52.5-52.5,52.5S4,159.11,4,130.16s23.55-52.5,52.5-52.5m0-4C25.3,73.66,0,98.96,0,130.16s25.3,56.5,56.5,56.5,56.5-25.3,56.5-56.5-25.3-56.5-56.5-56.5h0Z"/>
  <path d="m56.5,4c14.3,0,27.69,3.74,37.71,10.53,9.54,6.47,14.79,14.91,14.79,23.77s-5.25,17.31-14.79,23.77c-10.02,6.79-23.41,10.53-37.71,10.53s-27.69-3.74-37.71-10.53c-9.54-6.47-14.79-14.91-14.79-23.77s5.25-17.31,14.79-23.77c10.02-6.79,23.41-10.53,37.71-10.53m0-4C25.3,0,0,17.15,0,38.3s25.3,38.3,56.5,38.3,56.5-17.15,56.5-38.3S87.7,0,56.5,0h0Z"/>
</svg>