<?xml version="1.0" encoding="UTF-8"?>
<svg id="Layer_2" data-name="Layer 2" xmlns="http://www.w3.org/2000/svg" viewBox="0 0 113 187">
  <path d="m4.34,80.75C12.02,48.68,33.51,20.75,55.78,7.63c21.68-12.63,39.81-7.04,49.47,6.32,9.86,13.36,11.04,34.74-1.18,53.44-8.87,13.36-23.85,23.08-41.78,22.11l.99-22.35c20.89,1.46,38.04-23.32,25.43-39.11-7.1-8.99-17.94-7.53-28.97-.24-16.75,11.42-29.96,32.31-36.86,54.41-10.05,32.06-6.9,66.8,16.75,79.19,20.69,10.69,53.22-8.74,48.09-33.77-4.14-20.65-35.87-11.17-48.49,9.96l-14.59-13.36c24.64-41.05,72.33-39.35,80.42-3.64,8.28,35.95-21.48,66.07-52.62,66.07-39.81,0-62.48-46.4-48.09-105.91Z"/>
</svg>