<svg viewBox="0 0 113 187" fill="none" xmlns="http://www.w3.org/2000/svg">
<path d="M52.3593 186.66C66.9992 186.66 78.7112 176.168 82.8593 161.284H83.5913L90.6672 183H112.139V87.5959H61.3872V116.876H76.5153C76.5153 146.888 69.6833 156.16 56.0193 156.16C40.4033 156.16 35.5233 139.812 35.5233 121.512V63.1959C35.5233 46.3599 41.3793 31.4759 56.0193 31.2319C70.4153 30.9879 76.5153 41.9679 76.5153 57.5839V65.8799H112.139V58.8039C112.139 20.7399 90.6673 0.243896 58.9473 0.243896C25.5193 0.243896 0.387207 20.7399 0.387207 58.8039V130.784C0.387207 166.164 25.5192 186.66 52.3593 186.66Z" fill="currentColor"/>
<path d="M52.3593 186.66C66.9992 186.66 78.7112 176.168 82.8593 161.284H83.5913L90.6672 183H112.139V87.5959H61.3872V116.876H76.5153C76.5153 146.888 69.6833 156.16 56.0193 156.16C40.4033 156.16 35.5233 139.812 35.5233 121.512V63.1959C35.5233 46.3599 41.3793 31.4759 56.0193 31.2319C70.4153 30.9879 76.5153 41.9679 76.5153 57.5839V65.8799H112.139V58.8039C112.139 20.7399 90.6673 0.243896 58.9473 0.243896C25.5193 0.243896 0.387207 20.7399 0.387207 58.8039V130.784C0.387207 166.164 25.5192 186.66 52.3593 186.66Z" fill="currentColor"/>
</svg>
